<?xml version="1.0" standalone="no"?><!DOCTYPE svg PUBLIC "-//W3C//DTD SVG 1.1//EN" "http://www.w3.org/Graphics/SVG/1.1/DTD/svg11.dtd"><svg t="1638163986063" class="icon" viewBox="0 0 1024 1024" version="1.1" xmlns="http://www.w3.org/2000/svg" p-id="870" xmlns:xlink="http://www.w3.org/1999/xlink" width="200" height="200"><defs><style type="text/css"></style></defs><path d="M939.0848 463.5136a419.2256 419.2256 0 0 1 2.82112 48.64c0 229.12-185.74336 414.86848-414.86848 414.86848-98.52928 0-189.03552-34.35008-260.1984-91.7248 119.00416-23.97184 249.1392-72.8064 377.10848-145.85344l6.29248-3.6096 10.752-6.26688c108.38016-63.80032 202.16832-137.728 276.86912-214.784l1.2288-1.26976zM527.03744 97.28c82.304 0 159.00672 23.9616 223.51872 65.30048 116.62848-25.0112 205.02016-14.78144 233.8048 36.096 52.91008 93.5168-115.67616 288.98304-376.55552 436.5824C346.9312 782.848 92.55424 826.69056 39.63904 733.16864c-26.76224-47.3088 3.14368-120.69376 73.00096-200.77568a436.88448 436.88448 0 0 1-0.47104-20.24448C112.16896 283.0336 297.91232 97.28 527.03744 97.28zM123.8528 610.3296l-0.75264 1.06496c-31.7696 45.39392-41.53344 78.8992-34.41664 91.47904 6.38976 11.29984 34.28864 19.62496 79.9744 18.4064a412.1088 412.1088 0 0 1-44.80512-110.9504z m688.14848-401.3568l-1.54624 0.2048a416.32768 416.32768 0 0 1 85.53984 113.0752c35.69664-48.90112 46.84288-85.1968 39.3728-98.4064-8.22272-14.52544-51.968-24.13568-123.3664-14.8736z" fill="#1296db" p-id="871"></path></svg>