<?xml version="1.0" encoding="UTF-8"?>
<svg width="32px" height="32px" viewBox="0 0 32 32" version="1.1" xmlns="http://www.w3.org/2000/svg" xmlns:xlink="http://www.w3.org/1999/xlink">
    <title>画板备份 7</title>
    <g id="画板备份-7" stroke="none" stroke-width="1" fill="none" fill-rule="evenodd">
        <rect id="矩形" x="0" y="0" width="32" height="32"></rect>
        <g id="icon-/-Outlined-/-service">
            <g id="编组">
                <rect id="矩形" x="0" y="0" width="32" height="32"></rect>
                <path d="M16,2.66666667 C22.2911868,2.66666667 27.4516334,7.50794114 27.9590529,13.6682032 L28.0578786,13.7245504 C28.8229203,14.1932973 29.3333333,15.037042 29.3333333,16 L29.3333333,17.3333333 C29.3333333,18.5609959 28.5037404,19.5948966 27.3745705,19.9050195 L27.4271163,19.8900026 L27.4271163,19.8900026 C25.8741038,23.5648341 22.599774,26.335231 18.6145231,27.1905363 L18.5852242,27.3232696 C18.2927105,28.4785239 17.246181,29.3333333 16,29.3333333 C14.5272407,29.3333333 13.3333333,28.139426 13.3333333,26.6666667 C13.3333333,25.1939073 14.5272407,24 16,24 C17.099594,24 18.0437436,24.6655363 18.4516032,25.6157632 L18.4399624,25.5890487 L18.4399624,25.5890487 C21.5688675,24.8673523 24.1776052,22.7851877 25.6104114,19.9991167 L25.7092568,20 C25.114911,20 24.8993868,19.9381163 24.6821029,19.8219115 C24.4648189,19.7057068 24.2942932,19.5351811 24.1780885,19.3178971 C24.0618837,19.1006132 24,18.885089 24,18.2907432 L24,15.0425901 C24,14.4482443 24.0618837,14.2327201 24.1780885,14.0154362 C24.2942932,13.7981522 24.4648189,13.6276265 24.6821029,13.5114218 C24.8993868,13.3952171 25.114911,13.3333333 25.7092568,13.3333333 L26.3152716,13.3329018 C25.6605946,8.21905373 21.291862,4.26666667 16,4.26666667 C10.708138,4.26666667 6.33940543,8.21905373 5.68472837,13.3329018 L6.2907432,13.3333333 C6.88508903,13.3333333 7.10061319,13.3952171 7.31789714,13.5114218 C7.53518109,13.6276265 7.7057068,13.7981522 7.82191153,14.0154362 C7.93811626,14.2327201 8,14.4482443 8,15.0425901 L8,18.2907432 C8,18.885089 7.93811626,19.1006132 7.82191153,19.3178971 C7.7057068,19.5351811 7.53518109,19.7057068 7.31789714,19.8219115 C7.10061319,19.9381163 6.88508903,20 6.2907432,20 L5.33333333,20 C3.860574,20 2.66666667,18.8060927 2.66666667,17.3333333 L2.66666667,16 C2.66666667,14.985323 3.23337903,14.1030088 4.06755285,13.6523082 L4.04177935,13.6664179 L4.04177935,13.6664179 C4.548926,7.50741633 9.70915417,2.66666667 16,2.66666667 Z M16,25.6 C15.4108963,25.6 14.9333333,26.0775629 14.9333333,26.6666667 C14.9333333,27.2557704 15.4108963,27.7333333 16,27.7333333 C16.5891037,27.7333333 17.0666667,27.2557704 17.0666667,26.6666667 C17.0666667,26.0775629 16.5891037,25.6 16,25.6 Z M25.5986667,14.932 L25.5986667,18.4 L26.6666667,18.4 C27.2104547,18.4 27.6592021,17.9930825 27.7250225,17.4671337 L27.7333333,17.3333333 L27.7333333,16 C27.7333333,15.4562119 27.3264158,15.0074646 26.8004671,14.9416442 L26.6666667,14.9333333 L25.5986667,14.932 Z M6.4,14.932 L5.33333333,14.9333333 C4.78954527,14.9333333 4.34079789,15.3402509 4.27497751,15.8661996 L4.26666667,16 L4.26666667,17.3333333 C4.26666667,17.8771214 4.6735842,18.3258688 5.19953293,18.3916892 L5.33333333,18.4 L6.4,18.4 L6.4,14.932 Z" id="形状结合" fill="#07C160"></path>
            </g>
        </g>
    </g>
</svg>